# xmcd
#
# Track frame offsets: 
#        150
#        7269
#        23024
#        35230
#        46369
#        55791
#        69862
#        79211
#        89959
#        100436
#        108072
#        116519
#        125677
#        134528
#        136813
#        150717
#        163586
#        181376
#        194254
#        207227
#        220884
#        239919
#        252507
#        261411
#        271729
#        283987
#        296650
#        306040
#        317517
#        327914
#        345149
#
# Disc length: 4724 seconds
#
# Revision: 0
# Processed by: cddbd v1.5.2PL0 Copyright (c) Steve Scherf et al.
# Submitted via: ExactAudioCopy v0.95b3
#
DISCID=db12721f
DTITLE=The Rolling Stones  - Unsurpassed Masters Vol. 1 (1963-64)  FLA
DTITLE=C
DYEAR=1900
DGENRE=
TTITLE0=Mick Talks About Bootlegs
TTITLE1=Baby What's Wrong
TTITLE2=Diddley Daddy
TTITLE3=Bright Lights, Big City
TTITLE4=I Want To Be Loved
TTITLE5=Roadrunner
TTITLE6=Come On
TTITLE7=Memphis, Tennessee
TTITLE8=Roll Over Beethoven
TTITLE9=It Should Be You
TTITLE10=Leave Me Alone
TTITLE11=That Girl Belongs To Yesterday
TTITLE12=Not Fade Away
TTITLE13=Wake Up In The Morning (Rice Krispies Jingle)
TTITLE14=Andrew's Blues
TTITLE15=Route 66
TTITLE16=Cops And Robbers
TTITLE17=You Better Move On
TTITLE18=Mona
TTITLE19=Hi Heeled Sneakers
TTITLE20=Stewed And Keefed
TTITLE21=Down In The Bottom
TTITLE22=Tell Me Baby
TTITLE23=As Time Goes By
TTITLE24=Blue Turns To Grey
TTITLE25=Around And Around
TTITLE26=If You Need Me
TTITLE27=I Can't Be Satisfied
TTITLE28=Crackin Up
TTITLE29=2120 South Michigan Avenue
TTITLE30=Down The Road Apiece
EXTD=
EXTT0=
EXTT1=
EXTT2=
EXTT3=
EXTT4=
EXTT5=
EXTT6=
EXTT7=
EXTT8=
EXTT9=
EXTT10=
EXTT11=
EXTT12=
EXTT13=
EXTT14=
EXTT15=
EXTT16=
EXTT17=
EXTT18=
EXTT19=
EXTT20=
EXTT21=
EXTT22=
EXTT23=
EXTT24=
EXTT25=
EXTT26=
EXTT27=
EXTT28=
EXTT29=
EXTT30=
PLAYORDER=
